<svg width="1512" height="982" viewBox="0 0 1512 982" fill="none" xmlns="http://www.w3.org/2000/svg">
<rect width="1512" height="982" fill="white"/>
<rect x="440" y="312" width="631" height="358" fill="#FF0000"/>
<path d="M693.294 498.054V500H683.739V498.054H693.294ZM684.222 481.956V500H681.831V481.956H684.222ZM692.03 489.714V491.66H683.739V489.714H692.03ZM693.17 481.956V483.915H683.739V481.956H693.17ZM698.201 489.454V500H695.909V486.591H698.077L698.201 489.454ZM697.656 492.788L696.702 492.75C696.71 491.833 696.846 490.987 697.111 490.21C697.375 489.425 697.747 488.743 698.226 488.165C698.705 487.587 699.275 487.141 699.936 486.827C700.605 486.505 701.345 486.343 702.154 486.343C702.815 486.343 703.41 486.434 703.939 486.616C704.468 486.79 704.918 487.07 705.29 487.459C705.67 487.847 705.959 488.351 706.157 488.971C706.356 489.582 706.455 490.33 706.455 491.214V500H704.15V491.189C704.15 490.487 704.046 489.925 703.84 489.504C703.633 489.074 703.332 488.764 702.935 488.574C702.539 488.376 702.051 488.277 701.473 488.277C700.903 488.277 700.382 488.396 699.911 488.636C699.449 488.876 699.048 489.206 698.709 489.627C698.379 490.049 698.119 490.532 697.929 491.077C697.747 491.614 697.656 492.184 697.656 492.788ZM718.389 497.398V480.965H720.694V500H718.587L718.389 497.398ZM709.367 493.444V493.184C709.367 492.16 709.491 491.23 709.739 490.396C709.995 489.553 710.354 488.83 710.817 488.227C711.288 487.624 711.845 487.161 712.49 486.839C713.143 486.509 713.87 486.343 714.671 486.343C715.514 486.343 716.249 486.492 716.877 486.79C717.513 487.079 718.05 487.504 718.488 488.066C718.934 488.62 719.285 489.289 719.541 490.074C719.797 490.858 719.975 491.747 720.074 492.738V493.878C719.983 494.861 719.806 495.745 719.541 496.53C719.285 497.315 718.934 497.984 718.488 498.538C718.05 499.091 717.513 499.517 716.877 499.814C716.241 500.103 715.497 500.248 714.646 500.248C713.861 500.248 713.143 500.078 712.49 499.74C711.845 499.401 711.288 498.926 710.817 498.315C710.354 497.703 709.995 496.984 709.739 496.158C709.491 495.324 709.367 494.419 709.367 493.444ZM711.672 493.184V493.444C711.672 494.114 711.738 494.741 711.87 495.328C712.011 495.915 712.225 496.431 712.515 496.877C712.804 497.323 713.171 497.674 713.618 497.93C714.064 498.178 714.597 498.302 715.216 498.302C715.976 498.302 716.6 498.141 717.087 497.819C717.583 497.497 717.98 497.071 718.277 496.542C718.575 496.014 718.806 495.44 718.971 494.82V491.833C718.872 491.379 718.727 490.941 718.537 490.52C718.356 490.09 718.116 489.71 717.819 489.38C717.529 489.041 717.17 488.772 716.74 488.574C716.319 488.376 715.819 488.277 715.241 488.277C714.613 488.277 714.072 488.409 713.618 488.673C713.171 488.929 712.804 489.285 712.515 489.739C712.225 490.185 712.011 490.706 711.87 491.3C711.738 491.887 711.672 492.515 711.672 493.184ZM732.838 489.256V500H730.533V486.591H732.714L732.838 489.256ZM732.367 492.788L731.302 492.75C731.31 491.833 731.43 490.987 731.661 490.21C731.892 489.425 732.235 488.743 732.69 488.165C733.144 487.587 733.71 487.141 734.387 486.827C735.065 486.505 735.85 486.343 736.742 486.343C737.37 486.343 737.948 486.434 738.477 486.616C739.006 486.79 739.464 487.066 739.853 487.446C740.241 487.826 740.542 488.314 740.757 488.909C740.972 489.504 741.079 490.222 741.079 491.065V500H738.787V491.177C738.787 490.474 738.667 489.912 738.427 489.491C738.196 489.07 737.866 488.764 737.436 488.574C737.006 488.376 736.502 488.277 735.924 488.277C735.247 488.277 734.681 488.396 734.226 488.636C733.772 488.876 733.408 489.206 733.136 489.627C732.863 490.049 732.665 490.532 732.541 491.077C732.425 491.614 732.367 492.184 732.367 492.788ZM741.055 491.524L739.518 491.994C739.526 491.259 739.646 490.553 739.877 489.875C740.117 489.198 740.46 488.595 740.906 488.066C741.36 487.537 741.918 487.12 742.579 486.814C743.24 486.5 743.996 486.343 744.847 486.343C745.565 486.343 746.202 486.438 746.755 486.628C747.317 486.818 747.788 487.112 748.168 487.508C748.556 487.897 748.85 488.396 749.048 489.008C749.246 489.619 749.345 490.346 749.345 491.189V500H747.04V491.164C747.04 490.412 746.92 489.83 746.681 489.417C746.449 488.995 746.119 488.702 745.689 488.537C745.268 488.363 744.764 488.277 744.178 488.277C743.674 488.277 743.227 488.363 742.839 488.537C742.451 488.71 742.125 488.95 741.86 489.256C741.596 489.553 741.393 489.896 741.253 490.284C741.121 490.673 741.055 491.086 741.055 491.524ZM758.379 500.248C757.446 500.248 756.599 500.091 755.839 499.777C755.087 499.455 754.439 499.004 753.893 498.426C753.356 497.848 752.943 497.162 752.654 496.369C752.365 495.576 752.22 494.708 752.22 493.767V493.246C752.22 492.156 752.381 491.185 752.704 490.334C753.026 489.475 753.464 488.748 754.017 488.153C754.571 487.558 755.199 487.108 755.901 486.802C756.603 486.496 757.33 486.343 758.082 486.343C759.04 486.343 759.866 486.509 760.56 486.839C761.263 487.17 761.837 487.632 762.283 488.227C762.729 488.814 763.06 489.508 763.274 490.309C763.489 491.102 763.597 491.97 763.597 492.911V493.94H753.583V492.069H761.304V491.895C761.271 491.3 761.147 490.722 760.932 490.16C760.726 489.599 760.395 489.136 759.941 488.772C759.486 488.409 758.867 488.227 758.082 488.227C757.561 488.227 757.082 488.339 756.644 488.562C756.207 488.777 755.831 489.099 755.517 489.528C755.203 489.958 754.959 490.483 754.786 491.102C754.612 491.722 754.525 492.436 754.525 493.246V493.767C754.525 494.403 754.612 495.002 754.786 495.563C754.967 496.117 755.228 496.604 755.566 497.026C755.913 497.447 756.33 497.778 756.818 498.017C757.314 498.257 757.875 498.377 758.503 498.377C759.313 498.377 759.999 498.211 760.56 497.881C761.122 497.55 761.614 497.108 762.035 496.555L763.423 497.658C763.134 498.096 762.766 498.513 762.32 498.909C761.874 499.306 761.325 499.628 760.672 499.876C760.028 500.124 759.263 500.248 758.379 500.248ZM774.081 496.443C774.081 496.113 774.006 495.807 773.858 495.526C773.717 495.237 773.424 494.977 772.978 494.746C772.54 494.506 771.879 494.299 770.995 494.126C770.251 493.969 769.578 493.783 768.975 493.568C768.38 493.353 767.872 493.093 767.451 492.788C767.038 492.482 766.72 492.122 766.496 491.709C766.273 491.296 766.162 490.813 766.162 490.259C766.162 489.731 766.278 489.231 766.509 488.76C766.748 488.289 767.083 487.872 767.513 487.508C767.951 487.145 768.475 486.86 769.087 486.653C769.698 486.447 770.379 486.343 771.131 486.343C772.205 486.343 773.122 486.533 773.882 486.913C774.642 487.294 775.225 487.802 775.63 488.438C776.035 489.066 776.237 489.764 776.237 490.532H773.944C773.944 490.16 773.833 489.801 773.61 489.454C773.395 489.099 773.077 488.805 772.656 488.574C772.242 488.343 771.734 488.227 771.131 488.227C770.495 488.227 769.979 488.326 769.582 488.525C769.194 488.715 768.909 488.958 768.727 489.256C768.554 489.553 768.467 489.867 768.467 490.198C768.467 490.445 768.508 490.668 768.591 490.867C768.682 491.057 768.839 491.234 769.062 491.4C769.285 491.557 769.599 491.705 770.004 491.846C770.408 491.986 770.925 492.127 771.553 492.267C772.651 492.515 773.556 492.812 774.267 493.159C774.977 493.506 775.506 493.932 775.853 494.436C776.2 494.94 776.373 495.551 776.373 496.27C776.373 496.856 776.249 497.393 776.002 497.881C775.762 498.368 775.411 498.79 774.948 499.145C774.494 499.492 773.949 499.765 773.312 499.963C772.684 500.153 771.978 500.248 771.193 500.248C770.012 500.248 769.012 500.037 768.194 499.616C767.376 499.194 766.757 498.649 766.335 497.98C765.914 497.311 765.703 496.604 765.703 495.861H768.008C768.041 496.489 768.223 496.989 768.554 497.36C768.884 497.724 769.289 497.984 769.768 498.141C770.247 498.29 770.722 498.364 771.193 498.364C771.821 498.364 772.346 498.282 772.767 498.116C773.197 497.951 773.523 497.724 773.746 497.435C773.969 497.146 774.081 496.815 774.081 496.443ZM787.192 496.443C787.192 496.113 787.118 495.807 786.969 495.526C786.828 495.237 786.535 494.977 786.089 494.746C785.651 494.506 784.99 494.299 784.106 494.126C783.363 493.969 782.689 493.783 782.086 493.568C781.491 493.353 780.983 493.093 780.562 492.788C780.149 492.482 779.831 492.122 779.608 491.709C779.385 491.296 779.273 490.813 779.273 490.259C779.273 489.731 779.389 489.231 779.62 488.76C779.86 488.289 780.194 487.872 780.624 487.508C781.062 487.145 781.586 486.86 782.198 486.653C782.809 486.447 783.491 486.343 784.243 486.343C785.317 486.343 786.234 486.533 786.994 486.913C787.754 487.294 788.336 487.802 788.741 488.438C789.146 489.066 789.348 489.764 789.348 490.532H787.056C787.056 490.16 786.944 489.801 786.721 489.454C786.506 489.099 786.188 488.805 785.767 488.574C785.354 488.343 784.846 488.227 784.243 488.227C783.606 488.227 783.09 488.326 782.694 488.525C782.305 488.715 782.02 488.958 781.838 489.256C781.665 489.553 781.578 489.867 781.578 490.198C781.578 490.445 781.619 490.668 781.702 490.867C781.793 491.057 781.95 491.234 782.173 491.4C782.396 491.557 782.71 491.705 783.115 491.846C783.52 491.986 784.036 492.127 784.664 492.267C785.763 492.515 786.667 492.812 787.378 493.159C788.088 493.506 788.617 493.932 788.964 494.436C789.311 494.94 789.485 495.551 789.485 496.27C789.485 496.856 789.361 497.393 789.113 497.881C788.873 498.368 788.522 498.79 788.059 499.145C787.605 499.492 787.06 499.765 786.424 499.963C785.796 500.153 785.089 500.248 784.305 500.248C783.123 500.248 782.123 500.037 781.306 499.616C780.488 499.194 779.868 498.649 779.447 497.98C779.025 497.311 778.815 496.604 778.815 495.861H781.12C781.153 496.489 781.334 496.989 781.665 497.36C781.995 497.724 782.4 497.984 782.879 498.141C783.359 498.29 783.834 498.364 784.305 498.364C784.932 498.364 785.457 498.282 785.878 498.116C786.308 497.951 786.634 497.724 786.857 497.435C787.08 497.146 787.192 496.815 787.192 496.443ZM800.402 497.707V490.805C800.402 490.276 800.295 489.817 800.08 489.429C799.874 489.033 799.56 488.727 799.138 488.512C798.717 488.297 798.197 488.19 797.577 488.19C796.999 488.19 796.491 488.289 796.053 488.487C795.623 488.686 795.284 488.946 795.036 489.268C794.797 489.59 794.677 489.937 794.677 490.309H792.384C792.384 489.83 792.508 489.355 792.756 488.884C793.004 488.413 793.359 487.988 793.822 487.607C794.293 487.219 794.855 486.913 795.507 486.69C796.168 486.459 796.904 486.343 797.713 486.343C798.688 486.343 799.547 486.509 800.291 486.839C801.043 487.17 801.629 487.669 802.051 488.339C802.48 489 802.695 489.83 802.695 490.83V497.075C802.695 497.521 802.732 497.997 802.807 498.501C802.889 499.004 803.009 499.438 803.166 499.802V500H800.774C800.659 499.736 800.568 499.385 800.502 498.947C800.435 498.501 800.402 498.087 800.402 497.707ZM800.799 491.871L800.824 493.482H798.506C797.854 493.482 797.271 493.535 796.759 493.643C796.247 493.742 795.817 493.895 795.47 494.101C795.123 494.308 794.859 494.568 794.677 494.882C794.495 495.188 794.404 495.547 794.404 495.96C794.404 496.381 794.499 496.766 794.689 497.113C794.879 497.46 795.165 497.736 795.545 497.943C795.933 498.141 796.408 498.24 796.97 498.24C797.672 498.24 798.292 498.092 798.829 497.794C799.366 497.497 799.791 497.133 800.105 496.704C800.427 496.274 800.601 495.857 800.625 495.452L801.604 496.555C801.547 496.902 801.39 497.286 801.134 497.707C800.877 498.129 800.535 498.534 800.105 498.922C799.684 499.302 799.18 499.62 798.593 499.876C798.015 500.124 797.362 500.248 796.635 500.248C795.726 500.248 794.929 500.07 794.243 499.715C793.566 499.36 793.037 498.885 792.657 498.29C792.285 497.687 792.099 497.013 792.099 496.27C792.099 495.551 792.24 494.919 792.521 494.374C792.802 493.82 793.206 493.362 793.735 492.998C794.264 492.626 794.9 492.346 795.644 492.156C796.387 491.966 797.218 491.871 798.135 491.871H800.799ZM814.988 486.591H817.07V499.715C817.07 500.896 816.831 501.904 816.352 502.739C815.872 503.573 815.203 504.205 814.344 504.635C813.493 505.073 812.51 505.292 811.395 505.292C810.932 505.292 810.387 505.217 809.759 505.069C809.139 504.928 808.528 504.684 807.925 504.337C807.33 503.999 806.83 503.54 806.425 502.962L807.627 501.599C808.189 502.276 808.776 502.747 809.387 503.011C810.007 503.276 810.618 503.408 811.221 503.408C811.948 503.408 812.576 503.272 813.105 502.999C813.634 502.726 814.042 502.322 814.332 501.785C814.629 501.256 814.778 500.603 814.778 499.827V489.541L814.988 486.591ZM805.756 493.444V493.184C805.756 492.16 805.876 491.23 806.115 490.396C806.363 489.553 806.714 488.83 807.169 488.227C807.631 487.624 808.189 487.161 808.842 486.839C809.494 486.509 810.23 486.343 811.048 486.343C811.89 486.343 812.626 486.492 813.253 486.79C813.89 487.079 814.427 487.504 814.865 488.066C815.311 488.62 815.662 489.289 815.918 490.074C816.174 490.858 816.352 491.747 816.451 492.738V493.878C816.36 494.861 816.182 495.745 815.918 496.53C815.662 497.315 815.311 497.984 814.865 498.538C814.427 499.091 813.89 499.517 813.253 499.814C812.617 500.103 811.874 500.248 811.023 500.248C810.221 500.248 809.494 500.078 808.842 499.74C808.197 499.401 807.644 498.926 807.181 498.315C806.718 497.703 806.363 496.984 806.115 496.158C805.876 495.324 805.756 494.419 805.756 493.444ZM808.049 493.184V493.444C808.049 494.114 808.115 494.741 808.247 495.328C808.387 495.915 808.598 496.431 808.879 496.877C809.168 497.323 809.536 497.674 809.982 497.93C810.428 498.178 810.961 498.302 811.58 498.302C812.341 498.302 812.968 498.141 813.464 497.819C813.96 497.497 814.352 497.071 814.641 496.542C814.939 496.014 815.17 495.44 815.335 494.82V491.833C815.245 491.379 815.104 490.941 814.914 490.52C814.732 490.09 814.493 489.71 814.195 489.38C813.906 489.041 813.547 488.772 813.117 488.574C812.688 488.376 812.184 488.277 811.605 488.277C810.977 488.277 810.436 488.409 809.982 488.673C809.536 488.929 809.168 489.285 808.879 489.739C808.598 490.185 808.387 490.706 808.247 491.3C808.115 491.887 808.049 492.515 808.049 493.184ZM826.117 500.248C825.183 500.248 824.337 500.091 823.576 499.777C822.825 499.455 822.176 499.004 821.631 498.426C821.094 497.848 820.681 497.162 820.392 496.369C820.102 495.576 819.958 494.708 819.958 493.767V493.246C819.958 492.156 820.119 491.185 820.441 490.334C820.763 489.475 821.201 488.748 821.755 488.153C822.308 487.558 822.936 487.108 823.638 486.802C824.341 486.496 825.068 486.343 825.819 486.343C826.778 486.343 827.604 486.509 828.298 486.839C829 487.17 829.574 487.632 830.021 488.227C830.467 488.814 830.797 489.508 831.012 490.309C831.227 491.102 831.334 491.97 831.334 492.911V493.94H821.321V492.069H829.042V491.895C829.009 491.3 828.885 490.722 828.67 490.16C828.463 489.599 828.133 489.136 827.678 488.772C827.224 488.409 826.604 488.227 825.819 488.227C825.299 488.227 824.82 488.339 824.382 488.562C823.944 488.777 823.568 489.099 823.254 489.528C822.94 489.958 822.697 490.483 822.523 491.102C822.35 491.722 822.263 492.436 822.263 493.246V493.767C822.263 494.403 822.35 495.002 822.523 495.563C822.705 496.117 822.965 496.604 823.304 497.026C823.651 497.447 824.068 497.778 824.555 498.017C825.051 498.257 825.613 498.377 826.241 498.377C827.05 498.377 827.736 498.211 828.298 497.881C828.86 497.55 829.351 497.108 829.773 496.555L831.161 497.658C830.872 498.096 830.504 498.513 830.058 498.909C829.612 499.306 829.062 499.628 828.41 499.876C827.765 500.124 827.001 500.248 826.117 500.248Z" fill="white"/>
<path d="M1031.19 337.956L1035.52 344.872L1039.86 337.956H1042.65L1036.95 346.891L1042.79 356H1039.97L1035.52 348.949L1031.08 356H1028.26L1034.1 346.891L1028.4 337.956H1031.19Z" fill="white"/>
</svg>
